<svg xmlns="http://www.w3.org/2000/svg" width="566" height="503" viewBox="0 0 566 503">
    <defs>
        <linearGradient id="a" x1="49.851%" x2="49.851%" y1="6.188%" y2="106.242%">
            <stop offset="0%" stop-color="#9E9D98"/>
            <stop offset="100%" stop-color="#CCCBC4" stop-opacity=".97"/>
        </linearGradient>
        <linearGradient id="b" x1="51.995%" x2="43.217%" y1="49.012%" y2="56.16%">
            <stop offset="0%" stop-color="#1A8692"/>
            <stop offset="100%" stop-color="#62AFBD"/>
        </linearGradient>
        <linearGradient id="c" x1="51.125%" x2="42.254%" y1="50.451%" y2="53.557%">
            <stop offset="0%" stop-color="#1A8692"/>
            <stop offset="100%" stop-color="#62AFBD"/>
        </linearGradient>
        <linearGradient id="d" x1="52.298%" x2="44.276%" y1="47.488%" y2="53.136%">
            <stop offset="0%" stop-color="#1A8692"/>
            <stop offset="100%" stop-color="#62AFBD"/>
        </linearGradient>
        <linearGradient id="e" x1="56.8%" x2="46.323%" y1="43.989%" y2="51.384%">
            <stop offset="0%" stop-color="#1A8692"/>
            <stop offset="100%" stop-color="#62AFBD"/>
        </linearGradient>
        <linearGradient id="f" x1="49.791%" x2="49.791%" y1="136.087%" y2="-54.036%">
            <stop offset="0%" stop-color="#60BFCA"/>
            <stop offset="100%" stop-color="#072A30"/>
        </linearGradient>
        <linearGradient id="g" x1=".277%" x2="100.557%" y1="49.716%" y2="49.716%">
            <stop offset="0%" stop-color="#FDDEDC"/>
            <stop offset="100%" stop-color="#FDBCB8"/>
        </linearGradient>
        <linearGradient id="h" x1="-.692%" x2="98.815%" y1="49.622%" y2="49.622%">
            <stop offset="0%" stop-color="#FDDEDC"/>
            <stop offset="100%" stop-color="#FDBCB8"/>
        </linearGradient>
        <linearGradient id="i" x1="54.567%" x2="48.015%" y1="78.394%" y2="34.86%">
            <stop offset="0%" stop-color="#EE6C4D"/>
            <stop offset="100%" stop-color="#0E454C"/>
        </linearGradient>
        <linearGradient id="j" x1="52.791%" x2="48.787%" y1="78.394%" y2="34.86%">
            <stop offset="0%" stop-color="#EE6C4D"/>
            <stop offset="100%" stop-color="#0E454C"/>
        </linearGradient>
        <linearGradient id="k" x1="49.861%" x2="49.861%" y1="115.394%" y2="2.02%">
            <stop offset="0%" stop-color="#008DA7"/>
            <stop offset="100%" stop-color="#11545B"/>
        </linearGradient>
        <linearGradient id="l" x1=".053%" x2="100.635%" y1="49.906%" y2="49.906%">
            <stop offset="0%" stop-color="#FAE8DC"/>
            <stop offset="100%" stop-color="#FAB9AB" stop-opacity=".97"/>
        </linearGradient>
        <linearGradient id="m" x1="50.728%" x2="49.054%" y1="97.875%" y2="-12.333%">
            <stop offset="0%" stop-color="#008DA7"/>
            <stop offset="100%" stop-color="#0F5B65"/>
        </linearGradient>
        <linearGradient id="n" x1=".08%" x2="100.36%" y1="49.534%" y2="49.534%">
            <stop offset="0%" stop-color="#FDDEDC"/>
            <stop offset="100%" stop-color="#FDBCB8"/>
        </linearGradient>
        <linearGradient id="o" x1="-1.109%" x2="100.048%" y1="48.852%" y2="48.852%">
            <stop offset="0%" stop-color="#FDDEDC"/>
            <stop offset="100%" stop-color="#FDBCB8"/>
        </linearGradient>
    </defs>
    <g fill="none" fill-rule="evenodd">
        <path fill="#EFEBE9" fill-rule="nonzero" d="M432.51 107.21h61.861V51.38h-61.86v55.83zM483.3 96.092h-39.716V62.255h39.716v33.837zM392.795 138.388h31.532v-28.761h-31.532v28.761zm24.792-6.767h-17.812v-14.985h17.812v14.985zM400.256 42.678h46.697V.382h-46.697v42.296zm38.272-8.217H408.2V8.84h30.328v25.62zM350.43 99.476h68.601V54.038h-68.6v45.438zm63.065-5.317h-57.769V59.597h57.77v34.562zM336.71 85.216H153.296v7.734H336.71zM565.138 177.542H412.292v7.734h152.846z"/>
        <path fill="#CCCBC4" fill-rule="nonzero" d="M316.732 20.443h-12.276v64.773h12.276zM300.124 33.977h-12.276v51.239h12.276zM283.515 33.977h-6.258v51.239h6.258z"/>
        <path fill="#EFEBE9" fill-rule="nonzero" d="M189.4 85.216h49.104V71.923c0-5.559-4.574-10.151-10.11-10.151H199.75c-5.536 0-10.109 4.592-10.109 10.151v13.293h-.24z"/>
        <path fill="url(#a)" fill-rule="nonzero" d="M44.188 21.994H5.195v-8.46c0-5.558 4.573-10.15 10.109-10.15h18.534c5.536 0 10.11 4.592 10.11 10.15v8.46h.24z" transform="matrix(-1 0 0 1 238.643 61.772)"/>
        <text fill="#FAFAFA" font-family="Helvetica" font-size="4.804" transform="matrix(-1 0 0 1 238.643 61.772)">
            <tspan x="7.746" y="10.655">14.30</tspan>
        </text>
        <g fill-rule="nonzero" transform="matrix(-1 0 0 1 549.15 98.026)">
            <path fill="#CCCBC4" d="M.14.483h15.164v79.275H.14z"/>
            <path fill="#EFEBE9" d="M3.75 7.25h7.943v50.273H3.75z"/>
            <ellipse cx="7.602" cy="70.816" fill="#EFEBE9" rx="3.851" ry="3.867"/>
        </g>
        <g fill-rule="nonzero" transform="matrix(-1 0 0 1 526.144 98.026)">
            <path fill="#CCCBC4" d="M.481.483h15.165v79.275H.48z"/>
            <path fill="#EFEBE9" d="M4.092 7.25h7.943v50.273H4.092z"/>
            <ellipse cx="7.943" cy="70.816" fill="#EFEBE9" rx="3.851" ry="3.867"/>
        </g>
        <path fill="#EFEBE9" fill-rule="nonzero" d="M473.67 143.464h25.034c1.926 0 4.092 1.692 4.092 3.625v26.828c0 1.933-2.166 4.592-4.092 4.592h-25.033c-1.926 0-3.37-2.659-3.37-4.592v-26.828c-.24-1.933 1.204-3.625 3.37-3.625zm7.222 8.459h10.59c1.204 0 2.408-.483 2.408-1.934 0-1.208-.963-1.933-2.407-1.933h-10.591c-1.204 0-2.407.483-2.407 1.933 0 1.45.963 1.934 2.407 1.934zM431.307 143.464h25.033c1.926 0 4.092 1.692 4.092 3.625v26.828c0 1.933-2.166 4.592-4.092 4.592h-25.033c-1.926 0-3.61-2.659-3.61-4.592v-26.828c.24-1.933 1.684-3.625 3.61-3.625zm7.221 8.459h10.591c1.204 0 2.407-.483 2.407-1.934 0-1.208-.963-1.933-2.407-1.933h-10.59c-1.204 0-2.408.483-2.408 1.933.24 1.45 1.204 1.934 2.407 1.934z"/>
        <g fill-rule="nonzero">
            <path fill="#005077" d="M142.945 475.307c-.482-.242-.723-.242-1.204-.242-.722-1.209-2.166-1.934-4.092-1.934-17.33-.725-34.661-2.175-51.992-.725-3.851-.241-5.777 2.9-5.536 5.8-.24 3.143 1.685 6.043 5.536 5.802 17.33 1.208 34.661 0 51.992-.726 1.926 0 3.13-.725 4.092-1.933.481 0 .722-.242 1.204-.483 2.647-.967 2.647-4.593 0-5.56z" opacity=".1"/>
            <g fill="#00425A">
                <path d="M102.025 351.077c-4.333-7.492-10.591-13.293-16.85-18.852-6.98-6.284-13.238-13.051-15.645-22.719-2.648-10.393-1.204-21.51.24-32.145.241-1.692-2.406-1.692-2.647 0-1.204 8.943-2.407 18.127-1.204 27.311.963 8.46 4.333 15.952 10.11 22.236 5.777 6.526 12.998 11.36 18.534 18.127 5.536 6.525 9.147 14.743 10.591 23.202 1.685 9.668.481 19.819-3.61 28.52-.723 1.45 1.444 2.9 2.166 1.45 6.98-14.985 6.258-32.87-1.685-47.13z"/>
                <path d="M122.725 355.427c-.722-6.284-2.647-12.326-6.258-17.643-3.37-5.076-7.943-9.668-10.832-15.227-7.22-14.501 4.574-29.244 9.87-42.296 2.647-6.525 4.332-13.534 2.406-20.543-1.444-5.801-5.295-10.635-9.146-14.985-4.814-5.801-9.629-11.118-11.795-18.61-2.166-7.493-1.444-15.71 1.685-22.72.722-1.45-1.685-2.9-2.166-1.45-5.296 11.601-4.333 25.136 2.888 35.529 3.61 5.075 8.184 9.426 11.795 14.743 4.332 6.284 5.536 13.293 3.61 20.786-3.61 14.018-15.164 26.102-14.201 41.087.722 13.535 13.72 21.27 17.571 33.595 5.296 16.677-1.685 33.837-7.943 49.064-.722 1.692 1.925 2.175 2.648.725 5.776-13.052 11.313-27.311 9.868-42.055z"/>
                <path d="M126.817 323.04c-4.092-5.558-9.146-9.909-14.683-14.017-6.017-4.35-12.516-8.46-15.886-15.227-3.851-7.25-1.926-14.743 4.333-20.06 6.017-5.076 13.72-7.01 19.978-11.36 5.296-3.625 10.35-9.184 10.11-16.193-.241-5.8-4.333-11.118-10.35-11.601-1.686 0-1.686 2.416 0 2.658 7.461.484 9.146 9.668 6.258 14.985-3.37 6.284-9.87 9.426-15.887 12.326-5.777 2.659-11.554 5.56-15.405 10.876-3.61 4.593-4.573 10.635-2.647 16.194 4.332 13.051 18.534 18.127 27.44 27.311 9.146 9.426 14.923 22.477 15.645 35.77.723 13.535-3.61 26.828-11.794 37.463-.481-9.185-3.61-18.127-9.387-25.62-6.98-9.184-16.85-13.776-27.44-17.402-10.832-3.625-23.59-6.767-30.81-16.676-3.37-4.592-5.296-10.635-3.852-16.194 1.444-6.042 6.258-10.392 11.072-14.018 8.906-6.767 21.423-14.743 18.535-27.794-.482-1.692-2.889-.967-2.648.725 2.888 13.051-12.035 20.302-20.22 27.07-3.85 3.141-7.22 7.008-8.665 11.6-1.684 4.834-1.203 10.152.963 14.744 9.388 22.235 39.235 19.093 55.362 33.353 9.147 7.976 14.683 20.06 14.683 32.145 0 .242 0 .484.24.725-.48.484-.721.967-1.203 1.209-1.203 1.208.722 3.142 1.926 1.933 18.775-20.302 20.94-52.205 4.332-74.924z"/>
            </g>
            <path fill="#1A8692" d="M80.602 267.21c-10.59 13.051-12.276 24.17-6.98 29.245l38.994-47.614c-4.092 1.209-22.386 6.768-32.014 18.369z"/>
            <path fill="#60BFCA" d="M113.579 248.6s-.241 0-.722.241l-38.994 47.614c.24 0 .24.241.481.241 5.777 4.834 16.609.967 27.68-12.326 10.592-13.051 11.555-35.77 11.555-35.77z"/>
            <path fill="#00425A" d="M83.01 286.062c2.647-3.142 5.295-6.526 7.943-9.668 5.295-6.525 10.35-12.81 15.405-19.335 0 0 0-.242-.241-.242-3.61 4.35-7.221 8.46-10.832 12.81-.481-2.659-1.203-5.8-2.407-8.46 0-.241-.24-.241-.24 0 .24 2.901 1.203 6.043 2.407 8.702-1.685 1.933-3.13 3.867-4.815 5.8-2.647 3.142-5.295 6.526-7.943 9.668-2.647 3.142-5.536 6.284-7.702 9.668-.24.241.24.725.481.483 2.889-2.659 5.296-6.284 7.943-9.426z"/>
            <path fill="#00425A" d="M85.898 281.953c-.963-4.592-2.167-9.426-3.851-14.26 0 0-.241-.241-.241 0 .722 4.592 2.166 9.426 3.851 14.26h.24zM101.784 276.636c-1.925-.242-3.851-.483-5.777-.483-1.685-.242-3.61-.484-5.295-.242-.24 0 0 .242 0 .242 1.926.483 3.61.483 5.295.483h5.777c.24 0 .24 0 0 0zM91.675 288.479c-3.37-.242-6.74-.725-10.11-.725-.24 0-.24.241 0 .241 3.61.726 6.98.726 10.11.484.24.242.24 0 0 0zM78.436 292.104c-.722-3.867-1.926-7.734-3.13-11.601 0-.242-.24-.242-.24 0 .722 3.867 1.685 7.734 3.13 11.601 0 0 .24.242.24 0z"/>
            <path fill="#1A8692" d="M116.226 225.639c0 11.118 3.852 17.643 8.666 17.885v-40.846c-1.444 2.417-8.425 12.81-8.666 22.961z"/>
            <path fill="#60BFCA" d="M125.373 202.195s-.24.242-.24.483v40.846h.24c5.055 0 9.147-6.526 9.147-17.885 0-11.36-9.147-23.444-9.147-23.444z"/>
            <path fill="#00425A" d="M125.373 234.34v-8.218c0-5.559 0-11.117-.24-16.435h-.241c0 3.626-.24 7.493-.24 11.118-1.445-1.208-2.89-2.417-4.815-3.384h-.24c1.444 1.209 3.128 2.417 4.813 3.626v13.293c0 2.658-.24 5.559 0 8.217 0 .242.482.242.482 0 .722-2.658.481-5.317.481-8.217z"/>
            <path fill="#00425A" d="M125.132 230.956c-2.407-1.933-5.054-3.867-7.943-5.559 0 0-.24 0 0 0 2.167 1.934 5.055 3.867 7.943 5.56 0 .24 0 0 0 0zM131.15 221.53c-1.203.725-2.166 1.45-3.37 2.175-.963.726-1.925 1.209-2.648 2.176 0 0 0 .241.241 0 1.204-.484 1.926-1.209 2.889-1.934.962-.725 1.925-1.45 2.888-2.417zM130.91 231.923c-1.926 1.208-3.852 2.417-5.537 3.867 0 0 0 .242.24.242 1.926-1.209 3.611-2.659 5.296-4.109zM125.373 239.415c-1.925-1.691-4.092-3.142-6.499-4.592 0 0-.24 0 0 0 1.926 1.692 4.092 3.384 6.5 4.592 0 .242.24 0 0 0z"/>
            <g>
                <path fill="#1A8692" d="M77.232 328.358c-2.407 12.568.482 20.785 6.018 21.994l8.665-45.921c-2.407 2.175-12.516 12.567-14.683 23.927z"/>
                <path fill="#60BFCA" d="M92.397 303.947l-.482.484-8.665 45.921h.481c5.537.967 11.554-5.317 13.961-18.127 2.167-12.81-5.295-28.278-5.295-28.278z"/>
                <path fill="#00425A" d="M85.416 339.96c.482-3.143 1.204-6.285 1.685-9.185 1.204-6.284 2.167-12.326 3.37-18.61h-.24c-.963 4.108-1.685 8.459-2.648 12.568-1.444-1.692-2.889-3.384-4.574-4.834h-.24c1.203 1.692 3.129 3.383 4.814 5.075-.482 1.934-.722 3.867-1.204 5.56-.481 3.141-1.203 6.283-1.685 9.184-.481 3.142-1.444 6.283-1.685 9.184 0 .241.482.241.482 0 .963-2.659 1.444-5.8 1.925-8.943z"/>
                <path fill="#00425A" d="M85.898 336.092c-2.167-2.9-4.814-5.559-7.703-7.976h-.24a62.04 62.04 0 0 0 7.943 7.976c0 .242 0 .242 0 0zM94.563 326.908c-1.444.483-2.648 1.208-4.092 1.692-1.203.483-2.407.966-3.61 1.692 0 0 0 .241.24.241 1.445-.483 2.407-.967 3.61-1.692 1.445-.483 2.649-1.208 3.852-1.933.24 0 .24-.242 0 0zM92.156 338.51c-2.407.966-4.814 1.933-6.98 3.141-.241 0 0 .242.24.242 2.407-.967 4.574-2.175 6.74-3.384.24 0 .24 0 0 0zM84.694 345.76c-1.685-2.417-4.092-4.592-6.258-6.526h-.24c1.684 2.175 3.85 4.592 6.498 6.526-.24.241 0 0 0 0z"/>
            </g>
            <g>
                <path fill="#1A8692" d="M114.782 307.09c-8.665 10.634-10.11 20.06-5.536 23.927l31.773-39.154c-3.37.966-18.534 5.558-26.237 15.226z"/>
                <path fill="#60BFCA" d="M141.741 291.62s-.24 0-.722.243l-32.014 39.154.241.241c4.814 3.867 13.72.967 22.626-10.15 9.147-10.877 9.869-29.487 9.869-29.487z"/>
                <path fill="#00425A" d="M116.467 322.557l6.5-7.975c4.332-5.318 8.424-10.635 12.756-15.952 0 0 0-.242-.24 0-2.889 3.625-6.018 7.009-8.906 10.634-.482-2.175-.963-4.592-1.926-7.009 0 0-.24-.241-.24 0 .24 2.417.962 4.834 1.925 7.251-1.444 1.692-2.648 3.142-4.092 4.834l-6.499 7.976c-2.166 2.658-4.573 5.075-6.499 7.976-.24.241.24.483.481.241 2.648-2.658 4.574-5.317 6.74-7.976z"/>
                <path fill="#00425A" d="M119.115 318.932c-.722-3.867-1.685-7.734-3.13-11.601h-.24c.722 3.867 1.685 7.734 3.37 11.601-.24.242 0 .242 0 0zM132.113 314.582c-1.685-.242-3.13-.242-4.814-.484-1.444-.242-2.889-.242-4.333-.242v.242c1.444.242 2.889.242 4.333.484 1.685.241 3.37.241 4.814 0 0 .241 0 0 0 0zM123.688 324.49c-2.888-.24-5.536-.724-8.184-.482-.24 0 0 .241 0 .241 2.889.484 5.537.242 8.184.242.24.242.24 0 0 0zM112.857 327.391c-.482-3.142-1.445-6.525-2.648-9.667h-.24c.48 3.142 1.443 6.284 2.406 9.426.24.483.482.483.482.241z"/>
            </g>
            <g>
                <path fill="#1A8692" d="M26.685 326.183c13.48 2.658 22.145-.484 23.83-6.284L.93 310.23c2.407 2.417 13.479 13.535 25.755 15.952z"/>
                <path fill="#60BFCA" d="M.448 309.748l.482.483 49.584 9.668v-.484c1.204-6.042-5.776-12.568-19.497-15.226-13.72-2.659-30.569 5.559-30.569 5.559z"/>
                <path fill="#00425A" d="M39.442 317.482c-3.37-.725-6.74-1.209-10.11-1.934-6.74-1.208-13.238-2.658-19.978-3.625v.242c4.574.966 8.906 1.933 13.48 2.9-1.685 1.45-3.611 3.142-5.296 5.075v.242c1.926-1.45 3.851-3.142 5.536-5.075 1.926.483 4.092.725 6.018 1.208 3.37.725 6.74 1.209 10.11 1.934 3.37.725 6.74 1.691 10.109 1.933.24 0 .24-.483 0-.483-3.13-1.45-6.74-1.934-9.869-2.417z"/>
                <path fill="#00425A" d="M35.11 316.757c-3.13 2.417-6.018 5.317-8.666 8.217v.242c3.13-2.417 6.018-5.076 8.665-8.46.241.242.241 0 0 0zM25.24 307.33c.482 1.451 1.204 2.901 1.926 4.593.482 1.45 1.204 2.659 1.926 3.867 0 0 .24 0 .24-.242a29.552 29.552 0 0 0-1.684-4.108c-.963-1.45-1.685-2.9-2.407-4.11 0-.24 0 0 0 0zM37.757 309.99c.963 2.658 2.166 5.317 3.37 7.734 0 .241.24 0 .24-.242-.962-2.659-2.166-5.076-3.61-7.493zM45.46 318.449c-2.407 1.933-4.814 4.35-7.221 6.767v.242c2.647-2.176 5.054-4.35 7.22-7.01.241 0 0-.241 0 0z"/>
            </g>
            <g>
                <path fill="#EFEBE9" d="M139.093 393.856H89.99v7.976h49.103z"/>
                <path fill="#60BFCA" d="M139.093 401.832H89.99v3.384h49.103z"/>
                <path fill="#EFEBE9" d="M139.093 444.853v-39.637H89.99v20.302l20.941 19.335z"/>
                <path fill="#B0BEC5" d="M110.931 444.853L89.99 425.518v19.335z"/>
                <path fill="#008DA7" d="M89.99 444.853v3.626h24.552l-3.611-3.626z"/>
                <path fill="#60BFCA" d="M139.093 444.853h-28.162l3.61 3.626h24.552z"/>
                <path fill="#EFEBE9" d="M139.093 459.113V448.48h-24.551l21.904 20.302c1.684-2.9 2.647-6.284 2.647-9.668z"/>
                <path fill="#B0BEC5" d="M114.542 448.479H89.99v10.634c0 10.876 9.628 19.819 21.422 19.819h6.5c7.943 0 14.923-4.109 18.534-10.151l-21.904-20.302z"/>
            </g>
            <g>
                <path fill="#1A8692" d="M65.92 228.298c16.367 3.383 27.199-.484 28.884-7.493L34.628 208.48c2.888 2.9 16.368 16.677 31.291 19.819z"/>
                <path fill="#60BFCA" d="M34.147 207.754s.24.241.481.725l60.176 12.326c0-.242 0-.242.24-.483 1.445-7.493-6.74-15.469-23.588-18.852-16.85-3.626-37.31 6.284-37.31 6.284z"/>
                <path fill="#00425A" d="M81.324 217.663c-4.092-.725-8.183-1.692-12.035-2.417-8.184-1.692-16.127-3.142-24.31-4.834 0 0-.241.242 0 .242 5.535 1.209 10.83 2.417 16.367 3.625-2.166 1.692-4.573 3.626-6.258 6.043v.241c2.407-1.691 4.573-3.867 6.74-6.042 2.407.484 5.054.967 7.461 1.692 4.092.725 8.184 1.692 12.035 2.417 4.092.967 7.944 2.175 12.276 2.417.241 0 .482-.484.241-.725-4.333-1.45-8.425-1.934-12.517-2.659z"/>
                <path fill="#00425A" d="M76.27 216.696c-3.61 2.9-7.462 6.284-10.832 9.91v.241c3.851-2.9 7.703-6.284 10.832-10.15.24.241.24 0 0 0zM64.235 205.095c.722 1.934 1.444 3.626 2.166 5.56.722 1.69 1.203 3.383 2.166 4.591 0 0 .24 0 .24-.241-.48-1.692-1.203-3.384-1.925-4.834-.722-1.692-1.685-3.384-2.647-5.076 0-.242 0 0 0 0zM79.64 208.479c1.203 3.142 2.407 6.526 4.091 9.426 0 .242.241 0 .241-.242-1.203-3.384-2.888-6.284-4.332-9.184zM88.786 218.872c-3.129 2.417-6.017 5.317-8.665 8.217v.242c3.13-2.417 6.018-5.076 8.906-8.218 0-.241 0-.483-.24-.241z"/>
            </g>
            <g>
                <path fill="#1A8692" d="M43.534 265.76c9.387 14.018 19.738 18.61 25.996 14.985l-34.42-50.997c-.241 4.108 0 23.444 8.424 36.012z"/>
                <path fill="#60BFCA" d="M35.11 228.781v.967l34.42 50.997c.24 0 .24-.242.481-.242 6.259-4.35 5.777-15.71-3.85-29.97-9.87-14.501-31.052-21.752-31.052-21.752z"/>
                <path fill="#00425A" d="M62.068 268.902c-2.407-3.384-4.573-6.768-6.98-10.393-4.574-6.767-9.388-13.776-14.202-20.544h-.24c3.129 4.592 6.258 9.426 9.146 14.018-2.888-.241-5.777-.483-8.665-.241-.24 0-.24.241 0 .241 2.888.484 6.018.484 9.147.242 1.444 2.175 2.888 4.109 4.332 6.284 2.407 3.384 4.574 6.767 6.98 10.393 2.408 3.383 4.333 7.009 6.981 10.15.24.243.722 0 .482-.24-1.926-3.143-4.574-6.527-6.98-9.91z"/>
                <path fill="#00425A" d="M58.939 264.793c-4.573-.483-9.628-.725-14.683-.242-.24 0-.24.242 0 .242 4.574.483 9.628.483 14.683 0 0 .242 0 0 0 0zM58.458 247.875c-.722 1.933-1.445 3.625-2.167 5.559-.722 1.691-1.444 3.383-1.685 4.833 0 .242.241.242.241 0 .963-1.691 1.444-3.383 1.926-4.833.481-1.692 1.203-3.626 1.685-5.56zM66.882 261.168c-1.203 3.142-2.647 6.284-3.61 9.426 0 .241.24.241.24 0 1.685-3.142 2.648-6.284 3.37-9.426.241 0 0 0 0 0zM66.4 274.944c-3.85-.483-7.942-.483-12.034-.242-.241 0-.241.242 0 .242 3.85.483 7.943.725 12.035.242.24 0 .24-.242 0-.242z"/>
            </g>
            <g>
                <path fill="#1A8692" d="M95.285 172.467c-5.536 15.951-3.37 27.07 3.37 29.728l20.46-58.248c-3.37 2.659-18.775 14.018-23.83 28.52z"/>
                <path fill="#60BFCA" d="M119.837 143.705s-.24.242-.722.484l-20.46 58.248c.24 0 .24.241.481.241 6.98 2.417 16.128-4.592 21.905-21.027 5.776-16.435-1.204-37.946-1.204-37.946z"/>
                <path fill="#00425A" d="M103.71 189.385c1.444-3.867 2.648-7.734 4.092-11.843 2.648-7.734 5.295-15.71 7.943-23.444 0 0-.24-.241-.24 0-1.926 5.317-3.852 10.635-5.778 15.71-1.444-2.417-3.129-4.834-5.054-7.25h-.241c1.203 2.416 3.13 5.075 5.055 7.492-.963 2.417-1.685 4.834-2.648 7.25-1.444 3.868-2.648 7.735-4.092 11.844-1.444 3.867-3.13 7.734-4.092 11.842 0 .242.481.484.481.242 2.167-3.867 3.13-7.976 4.574-11.843z"/>
                <path fill="#00425A" d="M105.154 184.31c-2.407-4.11-5.295-8.218-8.425-12.085h-.24c2.407 4.109 5.295 8.218 8.424 12.085.241.241.241.241.241 0zM118.393 173.917l-5.777 1.45c-1.685.483-3.37.725-5.055 1.692 0 0 0 .242.24.242 1.926-.242 3.37-.725 5.056-1.45 1.925-.484 3.85-1.209 5.536-1.934.24 0 0 0 0 0zM112.857 188.66c-3.37.725-6.74 1.45-9.629 2.659-.24 0 0 .241.241.241 3.37-.483 6.258-1.691 9.388-2.9.24.242 0 0 0 0zM101.544 196.394c-1.926-3.383-4.333-6.767-6.98-9.91h-.242c1.926 3.385 4.092 6.768 6.74 9.91.24.242.482.242.482 0z"/>
            </g>
        </g>
        <g fill-rule="nonzero">
            <g fill="#002856">
                <path d="M366.558 469.99l-4.092.483-15.646-238.308 4.092-.242zM215.396 470.231l4.092.483 15.164-238.55-4.091-.241z"/>
            </g>
            <path fill="#EFEBE9" d="M382.444 223.947H198.788v5.559h183.656z"/>
            <path fill="#00425A" d="M365.836 229.748H215.878v5.559h149.958z"/>
            <g fill="#00425A">
                <path d="M383.407 484.008l-5.055.241-18.534-251.843 5.055-.483zM198.066 481.59l5.054.242 18.534-249.426-5.054-.483z"/>
            </g>
            <g>
                <path fill="#37474F" d="M483.78 465.397v3.142c0 4.35-15.405 7.976-34.66 7.976-19.016 0-34.662-3.625-34.662-7.976v-3.142c0-4.35 15.405-7.976 34.661-7.976s34.661 3.626 34.661 7.976z"/>
                <path fill="#EFEBE9" d="M483.78 465.397c0-4.35-15.405-7.976-34.66-7.976-3.37 0-6.74 0-9.87.242l15.405 15.468c16.368-.725 29.125-3.867 29.125-7.734z"/>
                <path fill="#B0BEC5" d="M414.699 465.397c0 4.35 15.405 7.976 34.66 7.976h5.296l-15.405-15.468c-14.201.725-24.551 3.867-24.551 7.492z"/>
                <path fill="#37474F" d="M448.638 462.98c-.963 0-1.685-.725-1.685-1.692V309.264h3.61v152.024c0 .726-.722 1.692-1.925 1.692z"/>
                <path fill="#37474F" d="M479.93 412.708c0-7.009-15.647-10.634-31.052-10.634s-31.05 3.625-31.05 10.634c0 7.01 15.645 10.635 31.05 10.635 15.405 0 31.051-3.626 31.051-10.635zm-3.37 0c0 2.9-10.832 7.251-27.682 7.251-16.849 0-27.68-4.35-27.68-7.25 0-2.9 10.831-7.251 27.68-7.251 16.85 0 27.681 4.35 27.681 7.25z"/>
                <g transform="matrix(-1 0 0 1 484.16 298.63)">
                    <path fill="#9E9D98" d="M69.462 8.943v10.876c0 4.35-15.405 7.976-34.661 7.976S.14 24.169.14 19.819V8.943h69.322z"/>
                    <ellipse cx="35.042" cy="8.943" fill="#EFEBE9" rx="34.661" ry="7.976"/>
                </g>
            </g>
            <g>
                <path fill="#D3C0BE" d="M195.659 154.823c-1.445 1.934-1.926 4.35-1.445 6.768l13.72 56.797h51.03l-63.305-63.565z"/>
                <path fill="#C5C4BB" d="M342.488 218.388h-79.673l4.573 4.592h79.673c0-2.417-1.926-4.592-4.573-4.592z"/>
                <path fill="#C0AFAE" d="M208.175 218.388c0 2.659 2.166 4.592 4.573 4.592h54.64l-4.573-4.592h-54.64z"/>
                <path fill="#EFEBE9" d="M347.06 223.222H305.18c-2.648 0-4.574-2.175-4.574-4.592h41.883c2.647-.242 4.573 1.933 4.573 4.592z"/>
                <path fill="#D6D5CA" d="M300.605 218.388l-14.683-60.664c-.963-3.626-4.332-6.284-7.943-6.284h-75.34c-2.889 0-5.055 1.45-6.74 3.383l63.546 63.807h41.16v-.242z"/>
                <path fill="#4D4D4F" d="M304.456 218.388h-92.43l-14.442-59.94c-.963-3.625 1.926-7.25 5.536-7.25h78.47c3.85 0 7.22 2.659 7.943 6.284l14.923 60.906z"/>
                <path fill="url(#b)" d="M94.837 51.48c-16.127 0-13.96-14.018-21.904-21.994-6.98-5.075-12.516-5.559-17.33-3.867L49.825 50.03c1.925-.241 3.61-.241 5.295-.241 7.943 1.933 16.127 12.084 21.904 10.15 21.423-2.9 40.679-3.625 57.287 6.285l4.092-16.919c-13.96-2.175-29.365 2.175-43.567 2.175z" transform="matrix(-1 0 0 1 348.024 151.198)"/>
                <path fill="url(#c)" d="M76.784 59.456c-6.017 1.934-13.96-7.976-21.904-10.15-1.444 0-3.37 0-5.295.24L45.252 67.19h88.338l.482-1.692c-16.609-9.667-35.865-8.942-57.288-6.042z" transform="matrix(-1 0 0 1 348.024 151.198)"/>
                <path fill="url(#d)" d="M136.96 35.287c-24.07 7.976-39.957 4.109-53.917-14.018-5.296-7.01-16.368-4.834-25.756-2.9l-1.685 7.009c4.815-1.45 10.35-1.209 17.331 3.867 7.943 7.976 6.018 21.994 21.904 21.994 14.202 0 29.607-4.11 43.327-2.659l3.37-13.776c-1.445 0-2.889 0-4.574.483z" transform="matrix(-1 0 0 1 348.024 151.198)"/>
                <path fill="url(#e)" d="M142.496 2.417h-75.34c-3.61 0-6.74 2.417-7.702 6.042l-2.407 9.91c9.387-1.934 20.46-4.11 25.755 2.9 13.96 18.127 30.088 21.994 53.917 14.018 1.685-.483 3.13-.725 4.574-.242l6.258-25.619c.963-3.625-1.685-7.01-5.055-7.01z" transform="matrix(-1 0 0 1 348.024 151.198)"/>
                <path fill="#FFF" d="M281.59 166.424h2.888c.481 0 .722-.483.722-.966l-1.203-5.076c0-.242-.482-.483-.722-.483h-2.889c-.481 0-.722.483-.722.967l1.204 5.075c.24.242.48.483.722.483zM283.515 176.092h2.889c.481 0 .722-.483.722-.967l-1.204-5.075c0-.242-.481-.484-.722-.484h-2.888c-.482 0-.722.484-.722.967l1.203 5.076c.24.241.482.483.722.483zM285.922 185.76h2.889c.481 0 .722-.484.722-.967l-1.204-5.075c0-.242-.481-.484-.722-.484h-2.888c-.482 0-.722.484-.722.967l1.203 5.075c0 .242.24.484.722.484zM273.165 166.424h2.888c.482 0 .723-.483.723-.966l-1.204-5.076c0-.242-.481-.483-.722-.483h-2.889c-.48 0-.722.483-.722.967l1.204 5.075c.24.242.481.483.722.483z" opacity=".6"/>
            </g>
            <g>
                <path fill="url(#f)" d="M57.668 88.46c-13.239-.242-24.07-.484-24.07-.484-.723-21.51 3.85-44.471-.241-65.982-1.444-7.734-6.5-16.677-14.202-20.06C8.083-2.9 2.787 6.284.862 15.952-.101 20.544-.101 25.136.38 28.52c.723 5.8 6.98 66.948 9.87 83.142 0 0 23.588-3.384 47.418-6.526-.482-5.559-.963-10.876 0-16.677z" transform="matrix(-1 0 0 1 431.206 102.86)"/>
                <path fill="url(#g)" d="M102.198 89.426s-24.792-.483-44.77-.967c-.964 5.8-.242 11.118 0 16.919l48.14-6.768-3.37-9.184z" transform="matrix(-1 0 0 1 431.206 102.86)"/>
                <path fill="url(#h)" d="M115.196 100.544l.963-1.45c3.61.966 6.499 2.9 8.906 5.8 1.203 1.45 3.129-.483 1.925-1.933-2.888-3.626-6.98-6.043-11.553-6.768l-12.998-6.767-4.333 7.25 2.407 7.977 1.926 1.208.481.483h.24l5.778 3.626c1.925 1.692 3.37 3.625 4.573 6.042.722 1.692 3.13.242 2.407-1.45-1.444-2.659-3.13-4.834-5.295-6.767l.722-1.209c3.85 1.209 6.98 3.384 9.628 6.767 1.203 1.45 3.129-.483 1.925-1.933-2.647-3.384-6.017-5.8-9.868-7.01l.722-.966c4.573.967 8.424 3.384 11.553 7.25 1.204 1.451 3.13-.483 1.926-1.933-3.37-4.35-7.462-7.009-12.035-8.217z" transform="matrix(-1 0 0 1 431.206 102.86)"/>
                <path fill="#EE6C4D" d="M416.865 91.983c-3.13-.966-5.777-3.383-8.906-4.592-5.055-1.933-10.591.725-16.127.242-5.055-.242-9.87-3.384-12.517-7.976-2.407-4.592-2.407-10.393 0-14.743-2.888-3.142-6.017-6.526-8.184-10.393-2.166-3.867-3.37-8.459-2.407-12.568.963-4.35 4.092-8.217 8.425-9.184.24-3.625 1.925-6.767 4.573-9.184 2.648-2.417 5.777-4.11 9.147-5.076 9.869-3.142 21.182-2.175 29.606 3.867 8.425 6.042 13.24 17.16 10.591 27.311 4.333 1.209 7.944 4.834 9.147 9.185 1.204 4.35 0 9.184-2.888 12.568 3.61.966 5.536 5.317 4.814 8.942-.722 3.626-3.61 6.526-6.74 8.218-3.13 1.692-6.98 2.417-10.35 3.142-2.889.483-5.536.966-8.184.241z"/>
                <path fill="#005077" d="M469.82 484.008c-30.088-2.66-60.176-3.868-90.505-4.593-.481-5.075-6.258-9.667-13.239-9.426-39.716 1.209-127.332-3.625-166.566 1.45-6.018.726-5.536 7.493.24 8.46 29.126 5.317 105.429 5.559 135.516 6.767-1.925 5.8.963 12.568 10.35 13.051 41.642 1.934 83.284 3.142 124.926 1.934 12.035-.725 11.072-16.435-.722-17.643z" opacity=".1"/>
                <path fill="url(#i)" d="M48.622 21.51L.482.243.24 3.384a180.347 180.347 0 0 0 5.777 53.172c4.573 17.643 14.442 33.353 19.256 50.997 2.888 10.393 4.814 21.027 6.74 31.42 4.573 25.377 8.424 50.997 12.035 76.616 1.685 11.843 3.37 23.686 4.814 35.287 2.888 0 5.777-.242 8.906-.242l10.11-74.199c4.573-33.353 2.647-67.19-5.296-99.819l-13.96-55.105z" transform="matrix(-1 0 0 1 449.12 226.122)"/>
                <path fill="#1A8692" d="M400.497 479.415h-8.665l-11.313 5.318-13.961 1.208-1.926 3.142 38.994 1.692z"/>
                <path fill="url(#j)" d="M49.826 28.761L5.296.483 3.128 12.568a147.576 147.576 0 0 0 5.536 74.441l3.61 10.634c7.463 21.753 4.815 158.067 4.815 158.067 2.888.483 5.777.725 8.665.967l20.7-72.024c9.388-32.387 12.277-65.982 9.147-99.577L49.826 28.76z" transform="matrix(-1 0 0 1 475.597 223.705)"/>
                <path fill="#1A8692" d="M459.47 481.832l-8.907 1.209-10.11 7.009-13.72 3.142-1.684 3.383 38.994-3.867z"/>
                <path fill="url(#k)" d="M54.057 74.924c-9.387.484-17.812 5.56-23.83 12.327-6.017 6.525-9.627 14.501-12.997 22.477C5.435 137.04-.823 252.326 4.713 261.028l79.914-7.252c1.685-10.634-11.554-93.776-7.944-125.68 1.685-14.743 4.092-31.178-5.536-43.02l-17.09-10.152z" transform="matrix(-1 0 0 1 479.347 15.85)"/>
                <path fill="url(#l)" d="M93.292 30.695c2.648 1.45 3.37 4.834 2.888 7.734-.481 2.9-1.685 5.559-2.407 8.46-.481 2.9-.24 6.283 1.926 8.217 1.203.966 2.648 1.692 2.648 3.142 0 1.933-2.648 2.175-4.333 3.142-2.648 1.45-2.888 4.834-3.13 7.734-.24 2.9-.721 6.284-3.369 7.492-3.37 1.45-6.74-1.933-10.35-2.9-3.37-.967-6.98.483-9.628 2.659-2.648 2.175-9.628 14.985-11.554 17.885-6.018-.725-11.072-9.426-11.072-18.61l17.812-21.028c-2.167.242-4.092-1.208-5.055-2.9-.963-1.692-.722-4.35.722-5.8 1.444-1.45 7.462-3.384 7.462 3.625 0 0 4.092-3.867 6.017-9.426 3.852-12.568 21.423-9.426 21.423-9.426z" transform="matrix(-1 0 0 1 479.347 15.85)"/>
                <g>
                    <path fill="#FF7A58" d="M342.247 212.588l8.665.725c2.889.241 5.296-1.934 5.536-4.834l1.685-22.96c0-1.451-.963-2.901-2.407-2.901l-13.48-.967c-1.443 0-2.888.967-2.888 2.417l-1.684 22.96c-.482 2.901 1.684 5.318 4.573 5.56z"/>
                    <path fill="url(#m)" d="M57.909 88.46c-13.24-.242-24.07-.484-24.07-.484-.723-21.51 3.85-44.471-.242-65.982C32.153 14.26 27.1 5.317 19.396 1.934 8.324-2.9 3.028 6.284 1.103 15.952.14 20.544.14 25.136.62 28.52c.722 5.8 6.98 66.948 9.869 83.142 0 0 23.589-3.384 47.419-6.526-.241-5.559-.963-10.876 0-16.677z" transform="matrix(-1 0 0 1 460.09 107.693)"/>
                    <path fill="url(#n)" d="M102.68 89.426s-24.793-.483-44.771-.967c-.963 5.8-.241 11.118 0 16.919l48.14-6.768-3.37-9.184z" transform="matrix(-1 0 0 1 460.09 107.693)"/>
                    <path fill="url(#o)" d="M126.75 87.492c1.685.242 1.685-2.658 0-2.658-4.814-.242-9.628.725-13.48 3.384l-.481-1.692c3.129-1.934 6.499-2.9 10.35-2.659 1.685.242 1.685-2.659 0-2.659-4.573-.241-9.147.967-12.757 3.868l-13.72 5.075 2.166 8.218 7.462 3.625 2.166-.483c.24 0 .482 0 .722-.242h.241l6.499-1.692c2.407-.242 5.055 0 7.462.725 1.685.483 2.407-2.175.481-2.659a26.341 26.341 0 0 0-8.665-.725l-.24-1.45c3.37-1.933 7.22-2.658 11.312-2.417 1.685.242 1.685-2.658 0-2.658-4.092-.242-8.184.483-11.794 2.417l-.24-1.209c3.369-3.383 7.702-4.592 12.516-4.109z" transform="matrix(-1 0 0 1 460.09 107.693)"/>
                    <path fill="#CCCBC4" d="M347.06 166.666c-.48-3.625 2.649-6.284 5.778-7.009 1.925-.483 2.888 2.417.963 3.142-1.926.483-3.852 1.45-3.37 4.109 0 .725 1.925 2.417 2.407 3.142.963 1.208 1.444 3.384 1.203 5.075-.481 2.659-2.888 6.526-6.017 4.834-.241-.241-.241-.483-.241-.725.24-.242.481-.725.722-.967 2.648-1.691 2.889-4.592.963-7.009-.963-1.692-1.926-2.658-2.407-4.592z"/>
                </g>
            </g>
        </g>
    </g>
</svg>
